<svg width="302" height="362" viewBox="0 0 302 362" fill="none" xmlns="http://www.w3.org/2000/svg">
<g clip-path="url(#clip0_431_218)">
<path d="M10.55 107.44C8.43001 114.78 8.46001 127.15 14.01 134.36C20.39 142.65 34.2 125.39 39.57 113.81C44.17 103.88 36.91 96.88 27 102.67C27 102.67 17.28 84.16 10.55 107.44Z" fill="#FE92A9"/>
<path d="M158.33 292.43C159.82 296.42 181.51 336.05 139.88 332.31C98.25 328.57 88.7799 279.72 88.7799 279.72C88.7799 279.72 74.8199 259.53 75.8199 248.06C76.7399 237.45 84.83 212.66 105.98 227.12C130.41 243.82 156.83 288.44 158.33 292.42V292.43Z" fill="#FFB518"/>
<path d="M280.97 246.07C277.73 276.98 259.71 288.36 245.82 293.18C234.71 297.04 159.17 310.61 212.42 260.03C237.35 236.35 242.33 201.45 252.8 198.46C263.27 195.47 284.21 215.16 280.97 246.07Z" fill="#FFB518"/>
<path d="M24.94 75.38C24.57 80.94 25.97 86.65 30.83 91.46C46.25 106.7 61.58 95.85 63.27 86.13C64.95 76.41 69.06 59.77 71.68 54.16C74.3 48.55 78.32 37.24 68.97 32.1C64.03 29.38 56.94 30.27 50.56 34.76C33.08 47.05 25.75 63.3 24.94 75.37V75.38Z" fill="#EC5689"/>
<path d="M49.78 218.65C49.51 218.65 49.24 218.55 49.02 218.35C25.93 197.08 18.1 175.78 15.6 161.65C12.88 146.28 15.61 136.08 15.73 135.65C15.89 135.05 16.51 134.7 17.11 134.87C17.71 135.04 18.06 135.65 17.89 136.25C17.85 136.4 15.17 146.52 17.83 161.39C20.29 175.15 27.96 195.91 50.54 216.7C51 217.12 51.03 217.83 50.61 218.28C50.39 218.52 50.09 218.64 49.78 218.64V218.65Z" fill="#76A002"/>
<path d="M50.65 129.97C48.74 134.9 46.54 138.57 34.01 143.06C21.48 147.55 -4.88004 153.16 2.22996 174.28C9.32996 195.41 34.2 205.5 34.2 205.5C34.2 205.5 50.46 213.91 76.08 197.84C101.69 181.76 101.51 152.6 101.51 152.6C101.51 152.6 123.57 129.42 110.67 115.77C97.77 102.12 81.88 101.94 74.96 102.31C68.04 102.68 56.45 105.11 52.53 123.81C52.53 123.81 51.24 128.48 50.66 129.98L50.65 129.97Z" fill="#FF5003"/>
<path d="M42.19 217.99C40.59 220.41 37.77 221.36 35.89 220.12C34.01 218.88 33.78 215.91 35.38 213.49C36.98 211.07 39.8 210.12 41.68 211.36C43.56 212.6 43.79 215.57 42.19 217.99Z" fill="#DD3A00"/>
<path d="M50.01 337.56C42.14 325.65 41.31 319.12 41.3 318.98C41.2 317.96 40.29 317.22 39.26 317.31C38.23 317.41 37.48 318.33 37.58 319.35C37.61 319.65 38.38 326.73 46.89 339.61C47.95 341.22 48.89 343.04 49.72 344.92C46.66 342.78 37 335.3 33.09 330.44C28.48 324.71 22.37 330.19 28.85 338.54C34.69 346.07 46.41 351.37 52.32 352.25C53.29 355.67 53.78 358.53 53.78 359.66C53.78 360.69 54.61 361.53 55.65 361.53C56.68 361.53 57.52 360.7 57.52 359.66C57.52 356.45 54.99 345.06 50.03 337.55L50.01 337.56Z" fill="#76A002"/>
<path d="M65.7699 216.17C67.8699 219.69 64.0399 224.61 57.7799 228.35C51.5199 232.1 45.22 233.24 43.11 229.73C41.01 226.21 44.37 220.33 50.63 216.58C56.89 212.83 63.6699 212.65 65.7699 216.17Z" fill="#FCB018"/>
<path d="M110.35 242.82C147.86 285.94 123.96 322.64 103.5 327.32C78.45 333.05 49.78 314.48 53.96 250.67C55.6 225.67 64.24 213.9 70.03 211.89C77.24 209.39 86.27 215.13 110.35 242.81V242.82Z" fill="#2A68D8"/>
<path d="M162.82 316.11C162.82 316.11 148.97 334.61 156.59 349.26C163.07 361.72 176.79 359.86 181.76 359.48C191.48 358.73 210.18 350.01 217.41 351.01C224.64 352.01 242.59 360.48 257.04 341.54C271.5 322.6 272 320.35 277.73 315.12C283.46 309.89 293.68 300.66 291.94 287.7C290.2 274.74 286.82 268.73 273.25 268.76C251.11 268.8 219.93 275.86 188.25 293.69C168.31 304.91 162.83 316.12 162.83 316.12L162.82 316.11Z" fill="#DD3A00"/>
<path d="M240.59 237.09C240.59 237.09 260.64 261.05 252.55 296.41C243.83 334.55 203.45 309.62 203.45 309.62C203.45 309.62 154.1 337.79 158.33 292.42C162.57 247.05 212.17 204.68 240.59 237.08V237.09Z" fill="#1E48A5"/>
<path d="M176.08 282.96C176.08 282.96 214.18 283.21 224.85 259.03C235.52 234.85 205.8 255.79 205.8 255.79L174.81 279.47C174.81 279.47 171.25 282.21 176.08 282.96Z" fill="#76A002"/>
<path d="M195.29 267.7C187.58 274.68 179.54 278.35 177.32 275.9C175.1 273.45 179.55 265.81 187.26 258.83C194.97 251.85 203.01 248.18 205.23 250.63C207.45 253.08 203 260.72 195.29 267.7Z" fill="#FCB018"/>
<path d="M280.32 270.83L278.87 269.65L279.59 270.24L278.86 269.65C278.91 269.59 283.48 263.89 286.28 253.94C288.86 244.77 290.43 230.01 283.2 211.76L284.94 211.07C292.38 229.85 290.74 245.08 288.06 254.54C285.14 264.83 280.51 270.59 280.31 270.83H280.32Z" fill="#DD3A00"/>
<path d="M285.33 203.01C287.13 206.73 286.58 210.71 284.11 211.91C281.63 213.11 278.16 211.07 276.36 207.36C274.56 203.64 275.11 199.66 277.58 198.46C280.06 197.26 283.53 199.3 285.33 203.01Z" fill="#DD3A00"/>
<path d="M220.16 19.52C218.23 21.94 213.38 21.29 209.33 18.06C205.28 14.83 203.57 10.25 205.5 7.83003C207.43 5.41003 212.28 6.06003 216.33 9.29003C220.38 12.52 222.09 17.1 220.16 19.52Z" fill="#DD3A00"/>
<path d="M189.49 258.53C188.84 258.53 188.18 258.32 187.63 257.88C186.34 256.85 186.12 254.97 187.15 253.68C193.91 245.18 194.12 219.85 192.25 200.75C190.83 186.23 186.38 167.69 186.34 167.51C185.95 165.9 186.94 164.29 188.55 163.9C190.15 163.51 191.77 164.5 192.16 166.11C192.35 166.88 196.75 185.24 198.21 200.17C199.22 210.45 201.74 244.97 191.84 257.41C191.25 258.15 190.38 258.54 189.5 258.54L189.49 258.53Z" fill="#FE92A9"/>
<path d="M149.36 92.27C135.15 117.66 165.06 154.09 165.06 154.09C165.06 154.09 180.76 174.78 214.91 173.03C249.06 171.29 263.39 145.55 261.27 129.91C259.28 115.2 246.56 109.97 223.63 107.97C209.3 106.72 196.91 96.13 189.64 88.36C185.28 83.7 164.56 65.1 149.35 92.27H149.36Z" fill="#FF5003"/>
<path d="M156.34 166.3C156.34 166.3 168.3 141.62 165.31 122.43C162.32 103.24 162.32 90.28 153.84 99C145.37 107.72 139.39 130.53 154.09 161.56L156.33 166.3H156.34Z" fill="#76A002"/>
<path d="M139.64 115.45C139.64 115.45 138.14 124.17 139.89 130.16C141.63 136.14 148.12 156.33 151.11 154.59C154.1 152.84 154.85 129.66 148.12 119.69C141.39 109.72 139.65 115.45 139.65 115.45H139.64Z" fill="#FFB518"/>
<path d="M157.23 216.89C157.23 216.89 151.19 192.22 144.46 179.97C137.73 167.73 122.4 151.57 121.47 174.53C120.54 197.49 139.36 206.75 139.36 206.75L157.22 216.88L157.23 216.89Z" fill="#76A002"/>
<path d="M162.57 266.76C162.57 266.76 183.26 235.6 183.76 214.66C184.26 193.72 183.01 174.28 167.56 170.04C152.11 165.8 167.56 206.43 167.81 216.9C168.11 229.37 158.09 247.56 160.08 257.78C162.07 268 162.57 266.75 162.57 266.75V266.76Z" fill="#76A002"/>
<path d="M179.02 276.54C178.84 276.54 178.65 276.52 178.46 276.48C176.94 276.17 175.96 274.69 176.27 273.17C184 235.14 141.38 212.04 123.18 202.18C120.66 200.81 118.66 199.73 117.22 198.84C102.15 189.55 80.4699 167.69 79.5599 166.77C78.4699 165.67 78.4799 163.89 79.5799 162.8C80.6799 161.71 82.4599 161.72 83.5499 162.82C83.7699 163.04 105.67 185.12 120.17 194.06C121.48 194.87 123.41 195.91 125.86 197.24C135.31 202.36 151.14 210.94 163.75 223.46C179.4 239 185.47 256.1 181.77 274.28C181.5 275.61 180.33 276.53 179.02 276.53V276.54Z" fill="#FE92A9"/>
<path d="M126.18 200.2C126.18 200.2 99.01 191.23 88.54 204.94C78.07 218.65 102.75 221.89 102.75 221.89C102.75 221.89 110.97 247.56 138.39 247.81C157.91 247.99 167.21 241.28 170.79 236.34C170.79 236.34 168.3 223.63 126.17 200.2H126.18Z" fill="#FE92A9"/>
<path d="M137.39 147.61C137.39 147.61 114.67 125.69 106.73 120.69C100 116.45 85.04 117.95 96.51 133.9C107.98 149.85 142.62 157.58 142.62 157.58L137.39 147.61Z" fill="#FE92A9"/>
<path d="M278.66 103.79C270.63 114.05 245.2 107.56 221.88 89.3C198.55 71.04 186.16 47.91 194.19 37.65C202.23 27.39 227.65 33.88 250.98 52.14C274.31 70.4 286.7 93.53 278.67 103.79H278.66Z" fill="#76A002"/>
<path d="M228.88 36.11C229.19 40.23 223.25 44.03 215.61 44.59C207.98 45.16 201.54 42.28 201.23 38.16C200.92 34.04 206.86 30.24 214.5 29.68C222.13 29.11 228.57 31.99 228.88 36.11Z" fill="#FE92A9"/>
<path d="M252.42 45.39C256.66 50.96 256.89 57.91 252.95 60.91C249 63.91 242.37 61.83 238.14 56.25C233.9 50.68 233.67 43.73 237.61 40.73C241.55 37.73 248.19 39.81 252.42 45.39Z" fill="#FE92A9"/>
<path d="M280.46 73.29C282.69 80.41 280.66 87.39 275.92 88.87C271.18 90.35 265.53 85.78 263.3 78.66C261.07 71.54 263.1 64.56 267.84 63.08C272.58 61.6 278.23 66.17 280.46 73.29Z" fill="#FE92A9"/>
<path d="M205.74 85.97C205.66 85.97 205.58 85.96 205.51 85.93C198.95 83.78 195.51 85.72 195.47 85.74C195.11 85.95 194.66 85.83 194.45 85.48C194.24 85.13 194.35 84.67 194.71 84.46C194.87 84.36 198.71 82.13 205.98 84.51C206.37 84.64 206.59 85.06 206.46 85.45C206.36 85.77 206.06 85.97 205.75 85.97H205.74Z" fill="black"/>
<path d="M191.9 98.51C191.46 98.51 190.96 98.46 190.43 98.32C189.93 98.19 189.64 97.67 189.77 97.17C189.9 96.67 190.42 96.38 190.92 96.51C192.03 96.81 192.97 96.48 192.98 96.48C193.46 96.3 194 96.55 194.18 97.03C194.36 97.51 194.11 98.05 193.63 98.23C193.53 98.27 192.85 98.5 191.9 98.5V98.51Z" fill="black"/>
<path d="M202.48 70.37C202.48 70.37 207.81 87.91 219.19 92.53C219.19 92.53 223.57 108.77 238.27 116.11C238.27 116.11 230.8 130.81 236.73 151.66C239.06 159.86 245.55 177.55 258.17 183.62C264.33 186.58 281.75 189.23 291.88 181.17C313.53 163.95 291.13 135.42 291.13 135.42C291.13 135.42 295.87 116.81 271.22 104.01C271.22 104.01 270.98 67.63 239.46 62.77C239.46 62.77 221.33 48.19 199.52 59.93C177.71 71.66 159.82 82.41 167.64 104.25C170.17 111.33 176.41 121.67 176.29 133.05C176.17 144.43 171.61 148.61 172.77 151.5C173.48 153.28 187.63 141.02 190.12 139.12C200.19 131.42 213.3 130.52 213.3 130.52C213.3 130.52 217.31 117.31 201.3 110.53C197.38 108.87 194.51 107.29 193.02 105.3C189.89 101.13 190.64 94.74 190.64 93.58C190.64 92.04 188.78 92.2 188.15 90.7C187.52 89.2 195.97 73.16 202.49 70.36L202.48 70.37Z" fill="#020100"/>
<path d="M200.43 90.99C197.76 90.99 195.5 89.76 195.36 89.68C195 89.48 194.87 89.02 195.07 88.66C195.27 88.3 195.72 88.17 196.09 88.37C196.09 88.37 200.25 90.62 203.44 88.7C203.79 88.49 204.25 88.6 204.47 88.95C204.68 89.3 204.57 89.76 204.22 89.98C202.98 90.73 201.66 90.99 200.44 90.99H200.43Z" fill="black"/>
<path d="M207.94 217.4C207.94 217.4 218.41 200.2 210.93 190.23C203.45 180.26 201.71 213.41 200.46 218.65C199.21 223.88 207.94 217.4 207.94 217.4Z" fill="#76A002"/>
<mask id="mask0_431_218" style="mask-type:luminance" maskUnits="userSpaceOnUse" x="154" y="268" width="139" height="92">
<path d="M162.82 316.11C162.82 316.11 148.97 334.61 156.59 349.26C163.07 361.72 176.79 359.86 181.76 359.48C191.48 358.73 210.18 350.01 217.41 351.01C224.64 352.01 242.59 360.48 257.04 341.54C271.5 322.6 272 320.35 277.73 315.12C283.46 309.89 293.68 300.66 291.94 287.7C290.2 274.74 286.82 268.73 273.25 268.76C251.11 268.8 219.93 275.86 188.25 293.69C168.31 304.91 162.83 316.12 162.83 316.12L162.82 316.11Z" fill="white"/>
</mask>
<g mask="url(#mask0_431_218)">
<path d="M201.67 335.77C197.27 339.2 192.22 340.06 190.38 337.7C188.54 335.34 192.26 331.18 196.66 327.75C201.06 324.32 204.46 322.92 206.3 325.28C208.14 327.64 206.07 332.33 201.67 335.76V335.77Z" fill="#FD92A9"/>
<path d="M230.87 332.81C227.62 336.95 224 339.41 221.81 337.69C219.62 335.97 220.47 331.22 223.73 327.07C226.98 322.93 231.39 320.97 233.59 322.69C235.78 324.41 234.13 328.67 230.88 332.81H230.87Z" fill="#FD92A9"/>
<path d="M264.52 324.21C261.3 328.95 257.89 331.88 255.8 330.46C253.71 329.04 256.07 323.9 259.29 319.16C262.51 314.42 265.36 311.86 267.45 313.28C269.54 314.7 267.74 319.46 264.52 324.2V324.21Z" fill="#FD92A9"/>
<path d="M174.8 333.71C171.38 337.78 166.97 339.71 164.96 338.01C162.95 336.31 165.09 332.66 168.51 328.59C171.93 324.52 175.33 321.58 177.35 323.27C179.37 324.96 178.23 329.64 174.81 333.71H174.8Z" fill="#FD92A9"/>
<path d="M274.26 292.49C270.81 298.06 267.67 302.01 265.08 300.41C262.49 298.81 263.85 293.26 267.3 287.68C270.75 282.1 274.98 278.61 277.57 280.22C280.16 281.82 277.71 286.92 274.26 292.49Z" fill="#FD92A9"/>
<path d="M289.86 306.74C286.64 311.48 282.66 314.02 279.34 311.77C276.02 309.52 277.94 304.08 281.16 299.34C284.38 294.6 287.68 292.35 290.99 294.6C294.31 296.85 293.07 302 289.86 306.74Z" fill="#FD92A9"/>
<path d="M244.64 351.36C240.4 355.65 236.09 358.12 234.11 356.16C232.13 354.2 233.96 349.13 238.2 344.84C242.44 340.55 247.49 338.66 249.47 340.62C251.45 342.58 248.88 347.07 244.64 351.36Z" fill="#FD92A9"/>
<path d="M177.28 356.5C173.91 359.91 170.3 361.67 168.32 359.71C166.34 357.75 167.46 353.4 170.83 349.99C174.2 346.58 178.54 345.41 180.52 347.37C182.5 349.33 180.66 353.09 177.29 356.49L177.28 356.5Z" fill="#FD92A9"/>
<path d="M267.25 276.62C263.45 280.7 258.89 282.63 257.06 280.92C255.23 279.21 258.38 274.64 262.18 270.56C265.98 266.48 269 264.45 270.83 266.15C272.66 267.85 271.05 272.54 267.25 276.61V276.62Z" fill="#FD92A9"/>
</g>
<path d="M199.96 217.4L196.47 219.52L193.73 247.81C214.92 242.58 234.86 225.87 242.83 212.41C250.81 198.95 244.55 189.54 238.84 186.98C235.23 185.36 226.47 195.17 217.65 203.18C208.83 211.19 199.95 217.39 199.95 217.39" fill="#FE92A9"/>
<mask id="mask1_431_218" style="mask-type:luminance" maskUnits="userSpaceOnUse" x="53" y="211" width="78" height="118">
<path d="M110.35 242.82C147.86 285.94 123.96 322.64 103.5 327.32C78.45 333.05 49.78 314.48 53.96 250.67C55.6 225.67 64.24 213.9 70.03 211.89C77.24 209.39 86.27 215.13 110.35 242.81V242.82Z" fill="white"/>
</mask>
<g mask="url(#mask1_431_218)">
<path d="M127.85 288.48C124.76 288.48 120.25 287.83 115.92 284.85C113.1 282.91 111.45 280.6 111.02 277.99C110.24 273.3 113.59 268.77 115.59 266.07C115.97 265.56 116.3 265.11 116.54 264.75C118.68 261.54 120.27 256.09 120.28 256.03L122.08 256.55C122.01 256.78 120.39 262.34 118.1 265.78C117.83 266.19 117.49 266.65 117.09 267.18C115.15 269.81 112.21 273.77 112.86 277.69C113.21 279.78 114.59 281.67 116.98 283.31C123.79 288 131.24 286.3 131.31 286.29L131.74 288.11C131.6 288.14 130.09 288.49 127.84 288.49L127.85 288.48Z" fill="#FFB518"/>
<path d="M128.53 303.12L117.88 298.29C116.81 298 107.66 295.25 102.39 283.97C96.9501 272.32 105 259.52 105.55 258.66L113.01 245.35L114.64 246.26L107.13 259.65C107.05 259.78 99.0101 272.32 104.08 283.17C109.19 294.1 118.32 296.47 118.41 296.49L118.57 296.55L129.29 301.41L128.52 303.11L128.53 303.12Z" fill="#FFB518"/>
<path d="M123.1 313.84C122.94 313.71 107.31 301.18 101.13 295.74C96.3601 291.54 95.4901 289.16 94.5701 286.63C94.2601 285.76 93.9301 284.87 93.4301 283.87C91.9001 280.8 91.8201 279.15 91.6001 274.73C91.5201 273.05 91.4201 270.96 91.2101 268.19C90.6601 260.84 92.4101 257.26 93.9601 254.11C94.5601 252.88 95.1301 251.71 95.4801 250.43C96.7701 245.66 104.7 236.84 105.04 236.46L106.43 237.71C106.35 237.8 98.4601 246.57 97.2901 250.91C96.9001 252.36 96.2901 253.61 95.6401 254.93C94.2001 257.87 92.5701 261.2 93.0801 268.05C93.2901 270.84 93.3901 272.95 93.4701 274.64C93.6801 279 93.7401 280.32 95.1001 283.03C95.6501 284.13 95.9901 285.08 96.3301 285.99C97.2001 288.39 97.9501 290.46 102.36 294.34C108.5 299.75 124.11 312.26 124.26 312.38L123.09 313.84H123.1Z" fill="#FFB518"/>
<path d="M118.69 323.03C114.29 323.03 108.98 315.96 104.71 310.27C102.91 307.88 101.37 305.81 100.39 304.98C99.5701 304.28 98.1101 303.3 96.4101 302.15C92.1101 299.25 86.2201 295.28 84.3401 291.61C82.8801 288.76 80.1301 280.19 80.0001 276.76C79.8001 271.5 79.5501 261.51 80.1301 253.72C80.7901 244.84 87.9701 237.74 90.1601 235.77C92.5601 233.61 96.8501 227.98 96.9001 227.92L98.3901 229.05C98.2101 229.29 93.9501 234.88 91.4201 237.16C89.3701 239.01 82.6201 245.68 82.0101 253.86C81.4401 261.55 81.6901 271.46 81.8901 276.69C82.0101 279.84 84.6701 288.11 86.0301 290.76C87.6901 294 93.3501 297.82 97.4901 300.61C99.2301 301.79 100.74 302.8 101.64 303.57C102.77 304.53 104.3 306.57 106.24 309.16C109.84 313.96 115.25 321.18 118.71 321.18C118.75 321.18 118.78 321.18 118.82 321.18L118.9 323.05C118.84 323.05 118.78 323.05 118.72 323.05L118.69 323.03Z" fill="#FFB518"/>
<path d="M76.93 222.11C75.26 222.11 73.79 221.7 72.67 220.9C68.78 218.12 69.51 211.23 69.54 210.94L71.4 211.15C71.4 211.21 70.76 217.24 73.76 219.38C74.91 220.2 76.66 220.45 78.69 220.07C81.37 219.58 84.03 218.06 85.15 216.38L86.71 217.42C85.31 219.52 82.22 221.33 79.03 221.92C78.31 222.05 77.61 222.12 76.94 222.12L76.93 222.11Z" fill="#FFB518"/>
<path d="M73.9801 230.64C73.0801 230.64 72.2001 230.47 71.3301 230.09C65.6001 227.56 63.1701 216.56 63.0701 216.1L64.9001 215.71C64.9201 215.82 67.2301 226.24 72.0901 228.39C76.6101 230.39 83.0401 224.08 87.7401 219.48L88.5001 218.73L89.8101 220.07L89.0501 220.82C84.5001 225.28 79.0001 230.66 73.9801 230.66V230.64Z" fill="#FFB518"/>
<path d="M56.0201 277.74C55.3501 277.74 54.6601 277.71 53.9501 277.66L54.0901 275.8C59.8901 276.24 64.4101 274.71 67.5201 271.22C73.0701 265.01 72.5701 254.77 71.9201 251.35C69.5101 238.81 57.7101 226.65 57.5901 226.53L58.9201 225.22C59.4201 225.73 71.2401 237.91 73.7501 251C74.7701 256.31 74.3201 266.4 68.9101 272.46C65.7801 275.97 61.4501 277.74 56.0101 277.74H56.0201Z" fill="#FFB518"/>
<path d="M53.39 269.05L53.15 267.2C58.84 266.46 62.4 264.37 63.75 260.99C67.38 251.89 54.67 236.09 54.54 235.94L55.99 234.76C56.54 235.44 69.52 251.57 65.49 261.69C63.87 265.75 59.8 268.23 53.39 269.06V269.05Z" fill="#FFB518"/>
<path d="M97.0001 329.87L96.0401 328.27C95.9301 328.33 95.9001 328.39 95.9001 328.39C95.9001 328.38 96.9301 326.83 93.9201 319.46C90.9001 312.07 85.7601 308.23 84.0801 306.97C83.7501 306.72 83.5401 306.57 83.4101 306.44C83.1801 306.23 81.9101 305.49 80.7901 304.84C78.8801 303.73 76.4901 302.35 74.9101 301.16C70.7601 298.04 61.4001 297.87 57.4901 299.41L56.8101 297.67C61.1801 295.95 71.1801 296.02 76.0301 299.66C77.5201 300.78 79.8501 302.13 81.7201 303.21C83.5101 304.25 84.3901 304.76 84.7301 305.1C84.7801 305.15 85.0001 305.31 85.2001 305.46C86.9901 306.8 92.4401 310.88 95.6601 318.74C99.2001 327.4 97.7901 329.4 97.0201 329.87H97.0001Z" fill="#FFB518"/>
<path d="M87.25 330.13C87.23 330.02 84.82 318.77 75.37 311.23C69.28 306.37 62.91 308.85 62.84 308.87L62.14 307.14C62.44 307.02 69.6 304.24 76.53 309.77C86.53 317.74 88.98 329.27 89.08 329.76L87.25 330.14V330.13Z" fill="#FFB518"/>
</g>
<path d="M29.84 251.01C27.59 232.92 35.15 218.6 35.23 218.45L36.55 219.16C36.48 219.3 29.14 233.23 31.33 250.83L29.85 251.01H29.84Z" fill="#DD3A00"/>
<path d="M59.38 248.8C59.38 248.8 56.76 234.72 43.8 235.72C30.84 236.72 29.84 250.17 29.84 250.17C29.84 250.17 27.22 244.26 27.47 237.09C28.34 212.41 12.26 219.02 9.66002 235.22C9.08002 238.84 0.880016 270.53 21.24 291.8L26.85 297.66C26.85 297.66 16.38 307.88 30.21 316.61C44.04 325.33 66.18 318.7 71.21 307.14C77.07 293.68 71.33 270 65.23 260.9C59.12 251.8 59.37 248.81 59.37 248.81L59.38 248.8Z" fill="#DD3A00"/>
<path d="M39.06 249.68C39.06 249.68 28.22 258.4 43.67 280.21C43.67 280.21 22.94 256.42 20.86 266.38C18.72 276.62 26.09 290.18 41.3 302.9C56.5 315.61 70.71 312.75 72.21 303.4C73.53 295.13 72.88 271.3 56.47 255.33C45.16 244.33 39.06 249.68 39.06 249.68Z" fill="#FE92A9"/>
<path d="M124.42 183.81C124.42 183.81 119.05 158.12 109.89 157.06C100.73 155.99 111.36 175.47 112.9 177.81C114.43 180.15 127.8 196.15 124.42 183.82V183.81Z" fill="#FFB518"/>
<path d="M184.26 261.83C184.07 261.83 183.87 261.81 183.68 261.77C182.16 261.45 181.19 259.96 181.51 258.45C183.54 248.8 179.73 232.55 170.5 211.45C161.36 190.56 149.43 170.64 144.73 163.05C122.04 126.39 116.66 99.42 116.44 98.29C116.15 96.77 117.14 95.3 118.66 95.01C120.18 94.72 121.65 95.71 121.94 97.23C121.99 97.5 127.39 124.39 149.49 160.1C159.72 176.63 192.67 232.65 186.99 259.62C186.71 260.94 185.55 261.85 184.25 261.85L184.26 261.83Z" fill="#FE92A9"/>
<mask id="mask2_431_218" style="mask-type:luminance" maskUnits="userSpaceOnUse" x="24" y="30" width="51" height="70">
<path d="M24.94 75.38C24.57 80.94 25.97 86.65 30.83 91.46C46.25 106.7 61.58 95.85 63.27 86.13C64.95 76.41 69.06 59.77 71.68 54.16C74.3 48.55 78.32 37.24 68.97 32.1C64.03 29.38 56.94 30.27 50.56 34.76C33.08 47.05 25.75 63.3 24.94 75.37V75.38Z" fill="white"/>
</mask>
<g mask="url(#mask2_431_218)">
<path d="M68.85 44.94C65.9 44.94 62.74 44.37 60.29 42.51C54.07 37.77 56.08 30.11 56.09 30.03C56.2 29.63 56.61 29.4 57.01 29.51C57.41 29.62 57.64 30.03 57.54 30.43C57.47 30.7 55.79 37.21 61.2 41.32C66.71 45.52 76.95 42.17 77.05 42.14C77.44 42.01 77.86 42.22 78 42.61C78.13 43 77.92 43.43 77.53 43.56C77.26 43.65 73.3 44.94 68.85 44.94Z" fill="#FFB518"/>
<path d="M27.66 92.21C27.34 92.21 27.04 92 26.94 91.67C26.83 91.27 27.05 90.86 27.45 90.74C35.12 88.52 38.61 83.66 41.79 78.45C44.96 73.26 43.03 64.51 43.01 64.42C42.92 64.02 43.17 63.62 43.57 63.53C43.97 63.44 44.37 63.69 44.46 64.09C44.55 64.47 46.54 73.52 43.06 79.23C39.85 84.48 36.04 89.81 27.86 92.18C27.79 92.2 27.72 92.21 27.65 92.21H27.66Z" fill="#FFB518"/>
<path d="M62.3 80.9C61.78 80.9 57.8 80.8 54.86 77.84C52.72 75.69 51.68 72.59 51.78 68.64C52.07 56.58 59.98 53.67 60.32 53.56C60.71 53.42 61.14 53.63 61.27 54.02C61.41 54.41 61.2 54.83 60.81 54.97C60.51 55.08 53.53 57.69 53.27 68.68C53.19 72.21 54.08 74.94 55.92 76.79C58.56 79.45 62.29 79.41 62.32 79.41C62.73 79.4 63.07 79.73 63.08 80.14C63.08 80.55 62.76 80.89 62.35 80.9H62.3Z" fill="#FFB518"/>
<path d="M42.43 100.15C42.35 100.15 42.27 100.14 42.18 100.11C41.79 99.97 41.58 99.55 41.72 99.16C41.98 98.42 48.2 80.92 61.25 79.97C61.66 79.94 62.02 80.25 62.05 80.66C62.08 81.07 61.77 81.43 61.36 81.46C49.29 82.35 43.19 99.48 43.13 99.65C43.02 99.96 42.73 100.15 42.42 100.15H42.43Z" fill="#FFB518"/>
</g>
<path d="M48.88 59.21C43.3 65.71 39.44 70.52 35.61 68C32.57 66 33.71 59.02 38.73 52.08C43.75 45.14 49.95 41.84 52.9 43.98C55.85 46.11 55.7 51.27 48.88 59.22V59.21Z" fill="#DD3A00"/>
<path d="M45.85 123.13C51.27 135.95 52.17 147.82 47.88 149.63C43.58 151.45 35.71 142.52 30.29 129.7C24.87 116.88 23.97 105.01 28.26 103.2C32.56 101.39 40.43 110.31 45.85 123.13Z" fill="#DD3A00"/>
<path d="M32.7001 107.44C32.7001 108.58 31.8801 109.5 30.8801 109.5C29.8801 109.5 29.0601 108.58 29.0601 107.44C29.0601 106.3 29.9201 105.85 30.9301 105.85C31.9401 105.85 32.7101 106.3 32.7101 107.44H32.7001Z" fill="#FFB518"/>
<path d="M38.6899 113.52C38.6899 114.6 38.0199 115.48 37.1899 115.48C36.3599 115.48 36.0699 114.51 36.0699 113.42C36.0699 112.33 36.3699 111.55 37.1899 111.55C38.0099 111.55 38.6899 112.43 38.6899 113.51V113.52Z" fill="#FFB518"/>
<path d="M30.0901 114.27C30.0901 115.35 29.8201 116.33 29.0101 116.33C28.2001 116.33 27.5601 115.45 27.5601 114.37C27.5601 113.29 28.2101 112.41 29.0101 112.41C29.8101 112.41 30.0901 113.2 30.0901 114.28V114.27Z" fill="#FFB518"/>
<path d="M34.58 116.25C34.94 117.16 34.72 118.1 34.09 118.35C33.46 118.59 32.67 118.05 32.31 117.14C31.95 116.23 32.17 115.29 32.8 115.04C33.43 114.8 34.22 115.34 34.58 116.25Z" fill="#FFB518"/>
<mask id="mask3_431_218" style="mask-type:luminance" maskUnits="userSpaceOnUse" x="1" y="102" width="114" height="106">
<path d="M50.65 129.97C48.74 134.9 46.54 138.57 34.01 143.06C21.48 147.55 -4.88004 153.16 2.22996 174.28C9.32996 195.41 34.2 205.5 34.2 205.5C34.2 205.5 50.46 213.91 76.08 197.84C101.69 181.76 101.51 152.6 101.51 152.6C101.51 152.6 123.57 129.42 110.67 115.77C97.77 102.12 81.88 101.94 74.96 102.31C68.04 102.68 56.45 105.11 52.53 123.81C52.53 123.81 51.24 128.48 50.66 129.98L50.65 129.97Z" fill="white"/>
</mask>
<g mask="url(#mask3_431_218)">
<path d="M33.82 146.17C36.93 152.49 31.78 160.46 22.71 164.93C13.63 169.4 4.06001 168.68 0.950006 162.36C-2.15999 156.04 2.67001 147.29 11.75 142.82C20.83 138.35 30.71 139.85 33.82 146.17Z" fill="#DD3A00"/>
<path d="M46.07 159.41C46.07 159.41 28.22 163.43 28.5 173.62C28.78 183.81 39.06 194.28 54.21 183.53C69.35 172.78 65.11 161.27 64.02 159.79C57.85 151.38 46.07 159.42 46.07 159.42V159.41Z" fill="#FE92A9"/>
<path d="M9.14996 186.61C11.29 183.61 18.12 179.88 23.54 189.79C25.58 193.52 26.9 195.46 27.93 196.45C34.01 202.31 25.79 203.9 21.98 201.05C18.73 198.62 14.68 195.46 13.63 194.37C11.76 192.41 7.71996 188.61 9.13996 186.61H9.14996Z" fill="#FE92A9"/>
<path d="M82.72 194.96C84.47 200.98 76.76 208.51 65.5 211.78C54.25 215.05 43.71 212.81 41.96 206.78C40.21 200.76 47.92 193.23 59.17 189.96C70.42 186.7 80.97 188.93 82.71 194.96H82.72Z" fill="#DD3A00"/>
<path d="M109.91 166.14C109.91 177.96 102 187.55 92.24 187.55C82.48 187.55 75.79 177.97 75.79 166.14C75.79 154.31 82.48 144.73 92.24 144.73C102 144.73 109.91 154.31 109.91 166.14Z" fill="#DD3A00"/>
<path d="M63.25 125.39C63.25 125.39 59.5301 134.25 59.7201 138.96C59.9101 143.67 63.06 150.18 68.59 147.07C74.12 143.96 82.04 138.4 82.52 131.71C83 125.02 84.43 119.27 76.32 115.03C68.21 110.79 64.3 121.72 63.25 125.4V125.39Z" fill="#FE92A9"/>
</g>
<path d="M57.62 116.45C58.28 120.79 56.97 124.59 54.7 124.93C52.43 125.27 50.05 122.04 49.4 117.7C48.74 113.36 50.05 109.56 52.32 109.22C54.59 108.88 56.97 112.11 57.62 116.45Z" fill="#FE92A9"/>
<path d="M158.71 310.19C158.65 310.19 158.58 310.19 158.52 310.18C157.6 310.08 156.93 309.24 157.04 308.32C158.06 299.27 156.16 291.74 151.4 285.94C142.71 275.35 127.31 273.92 127.16 273.91C126.23 273.83 125.55 273.02 125.63 272.09C125.71 271.16 126.52 270.47 127.45 270.56C128.14 270.62 144.43 272.13 154.01 283.81C159.36 290.34 161.51 298.71 160.39 308.7C160.29 309.56 159.57 310.19 158.72 310.19H158.71Z" fill="#76A002"/>
<path d="M67.2701 340.64C63.6901 340.64 59.5301 340.2 58.7601 338.24C58.2901 337.05 59.0701 335.85 61.0601 334.64C59.4101 333.94 58.5301 333.08 58.4401 332.09C58.3401 331.08 59.0501 330.12 60.5401 329.23C59.0301 328.47 58.3801 327.57 58.6101 326.52C58.9101 325.14 60.4601 324.85 65.5901 323.88C71.9201 322.69 82.4001 320.71 90.2201 316.05C89.8101 310.86 87.4801 281.7 85.5301 263.9C84.0101 250.05 84.6301 230.64 96.2301 216.85C104.41 207.12 116.89 201.67 133.32 200.63C134.04 200.58 134.66 201.13 134.71 201.85C134.75 202.57 134.21 203.19 133.49 203.24C117.8 204.23 105.94 209.37 98.2401 218.53C87.2401 231.61 86.6701 250.26 88.1401 263.61C90.2901 283.14 92.8801 316.31 92.9001 316.64C92.9401 317.13 92.7001 317.59 92.2901 317.85C83.9901 323.06 72.7801 325.18 66.0801 326.44C64.8101 326.68 63.4501 326.94 62.4201 327.17C63.0201 327.4 63.7401 327.62 64.4201 327.79C64.9801 327.92 65.3901 328.42 65.4201 329C65.4501 329.58 65.0901 330.11 64.5401 330.3C63.2801 330.74 61.9601 331.39 61.3301 331.85C62.0401 332.25 63.5301 332.78 64.9301 333.08C65.4901 333.2 65.9101 333.68 65.9501 334.25C66.0001 334.82 65.6701 335.36 65.1301 335.57C63.7801 336.11 62.3701 336.86 61.6501 337.39C62.8101 337.76 65.3901 338.04 67.8301 338.01L105.23 337.89C105.95 337.89 106.54 338.47 106.54 339.2C106.54 339.92 105.96 340.51 105.24 340.51L67.8501 340.62C67.6601 340.62 67.4601 340.62 67.2601 340.62L67.2701 340.64Z" fill="black"/>
<path d="M157.96 312.06C157.85 312.06 157.73 312.05 157.61 312.02C156.7 311.83 156.12 310.94 156.31 310.03C163.89 273.79 156.84 261.14 153.45 255.07C153.02 254.29 152.64 253.62 152.33 252.97C149.28 246.67 134.68 230.71 124.03 219.05C119.68 214.29 115.91 210.17 113.31 207.16C98.84 190.38 93.74 173.23 93.53 172.51C93.27 171.62 93.78 170.68 94.67 170.42C95.56 170.16 96.5 170.67 96.76 171.57C96.81 171.74 101.9 188.77 115.86 204.97C118.43 207.95 122.17 212.05 126.51 216.79C137.91 229.25 152.09 244.77 155.36 251.51C155.63 252.07 155.98 252.7 156.39 253.44C159.98 259.88 167.44 273.27 159.6 310.73C159.43 311.52 158.74 312.07 157.96 312.07V312.06Z" fill="#76A002"/>
<path d="M88.21 359.58C84.63 359.58 80.47 359.14 79.7 357.18C79.23 355.99 80.01 354.79 82 353.58C80.35 352.88 79.47 352.02 79.38 351.03C79.28 350.02 79.99 349.06 81.48 348.17C79.97 347.41 79.32 346.51 79.55 345.46C79.85 344.08 81.4 343.79 86.53 342.82C95.93 341.05 115.39 337.38 120.34 325.19C119.47 320.08 111.18 271.19 110.6 261.83C110.55 261.11 111.1 260.49 111.82 260.44C112.54 260.39 113.16 260.94 113.21 261.67C113.8 271.19 122.89 324.57 122.98 325.11C123.02 325.34 123 325.58 122.91 325.8C117.65 339.62 97.72 343.38 87.01 345.4C85.74 345.64 84.38 345.9 83.35 346.13C83.95 346.36 84.67 346.58 85.35 346.75C85.91 346.89 86.32 347.38 86.35 347.96C86.38 348.54 86.02 349.07 85.48 349.26C84.22 349.7 82.9 350.35 82.27 350.81C82.98 351.21 84.47 351.74 85.87 352.04C86.43 352.16 86.85 352.64 86.89 353.21C86.94 353.78 86.61 354.32 86.07 354.53C84.72 355.07 83.31 355.82 82.59 356.35C83.74 356.73 86.29 357 88.77 356.97L146.51 356.79C146.51 348.11 146.65 298.36 150.04 267.86C150.12 267.14 150.76 266.62 151.48 266.7C152.2 266.78 152.72 267.43 152.64 268.14C148.95 301.33 149.12 357.52 149.12 358.08C149.12 358.43 148.99 358.76 148.74 359.01C148.49 359.26 148.16 359.39 147.82 359.4L88.78 359.58C88.59 359.58 88.39 359.58 88.2 359.58H88.21Z" fill="black"/>
<path d="M229.12 46.85C228.51 47.87 227.33 48.29 226.49 47.78C225.65 47.28 225.46 46.04 226.07 45.02C226.68 44 227.86 43.58 228.7 44.09C229.54 44.59 229.73 45.83 229.12 46.85Z" fill="#DD3A00"/>
<path d="M202.83 47.99C202.83 49.38 201.95 50.51 200.87 50.51C199.79 50.51 198.91 49.38 198.91 47.99C198.91 46.6 199.79 45.47 200.87 45.47C201.95 45.47 202.83 46.6 202.83 47.99Z" fill="#DD3A00"/>
<path d="M216.73 52.47C217.11 53.15 216.66 54.11 215.74 54.62C214.82 55.13 213.77 55 213.39 54.32C213.01 53.64 213.46 52.68 214.38 52.17C215.3 51.66 216.35 51.79 216.73 52.47Z" fill="#DD3A00"/>
<path d="M260.31 67.12C259.64 68 258.51 68.26 257.78 67.71C257.05 67.16 257.01 66 257.68 65.12C258.35 64.24 259.48 63.98 260.21 64.53C260.94 65.08 260.98 66.24 260.31 67.12Z" fill="#DD3A00"/>
<path d="M277.61 99.68C277.61 100.61 276.56 101.36 275.27 101.36C273.98 101.36 272.93 100.61 272.93 99.68C272.93 98.75 273.98 98 275.27 98C276.56 98 277.61 98.75 277.61 99.68Z" fill="#DD3A00"/>
<path d="M219.01 33.63C219.15 34.8 217.4 35.97 215.09 36.25C212.78 36.53 210.8 35.81 210.66 34.65C210.52 33.48 212.27 32.31 214.58 32.03C216.89 31.75 218.87 32.47 219.01 33.63Z" fill="#DD3A00"/>
<path d="M249.68 48.92C250.63 50.75 250.51 52.7 249.42 53.27C248.32 53.84 246.66 52.82 245.7 50.99C244.75 49.16 244.87 47.21 245.96 46.64C247.06 46.07 248.72 47.09 249.68 48.92Z" fill="#DD3A00"/>
<path d="M272.71 78.06C273.04 80.15 272.26 82.01 270.97 82.21C269.68 82.41 268.37 80.88 268.05 78.79C267.72 76.7 268.5 74.84 269.79 74.64C271.08 74.44 272.39 75.97 272.71 78.06Z" fill="#DD3A00"/>
<path d="M146.06 16.14L144.68 14.37C162.76 0.349994 178.48 -0.950006 188.49 0.429994C199.38 1.92999 205.9 6.72999 206.17 6.92999L204.83 8.72999C204.77 8.67999 198.42 4.02999 188.06 2.62999C178.51 1.33999 163.47 2.62999 146.06 16.13V16.14Z" fill="#DD3A00"/>
<path d="M93.8 47.2C86.42 47.2 74.41 45.21 63.36 51.39C50.9 58.37 52.49 82.1 74.28 92.72C132.66 121.18 157.58 71.58 157.58 71.58C157.58 71.58 193.63 49.7 171.04 29.21C145.23 5.79002 119.69 9.77002 115.08 42.1C114.31 47.52 93.8 47.2 93.8 47.2Z" fill="#DD3A00"/>
<path d="M119.95 36.19C119.95 49.54 113.87 60.37 106.36 60.37C98.85 60.37 92.78 49.54 92.78 36.19C92.78 22.84 98.86 12.01 106.36 12.01C113.86 12.01 119.95 22.83 119.95 36.19Z" fill="#FE92A9"/>
<path d="M101.61 26.93C100.91 28.22 100.17 29.34 99.31 28.88C98.45 28.41 98.46 27.35 99.16 26.06C99.86 24.77 100.98 23.73 101.84 24.2C102.7 24.67 102.31 25.64 101.61 26.94V26.93Z" fill="#1E48A5"/>
<path d="M112.83 23.4C112.29 24.54 111.63 25.35 110.89 24.99C110.14 24.64 109.97 23.42 110.51 22.28C111.05 21.14 112.09 20.49 112.84 20.85C113.59 21.2 113.37 22.25 112.84 23.4H112.83Z" fill="#1E48A5"/>
<path d="M107.54 30.88C107 32.02 106.3 32.81 105.43 32.39C104.55 31.98 104.28 30.71 104.82 29.57C105.36 28.43 106.51 27.83 107.38 28.25C108.26 28.66 108.08 29.73 107.54 30.88Z" fill="#1E48A5"/>
<path d="M107.34 21.83C106.79 22.97 106.08 23.74 105.21 23.32C104.34 22.9 104.23 21.07 104.79 19.94C105.34 18.8 106.34 18.78 107.21 19.2C108.08 19.62 107.89 20.69 107.34 21.83Z" fill="#1E48A5"/>
<path d="M103.31 17.94C102.7 19.08 102.04 20.06 101.26 19.63C100.48 19.21 100.48 18.27 101.1 17.14C101.71 16.01 102.7 15.1 103.48 15.52C104.26 15.94 103.92 16.8 103.31 17.93V17.94Z" fill="#1E48A5"/>
<path d="M113.06 34.63C112.41 35.89 111.66 36.77 110.93 36.39C110.2 36.01 110.13 34.68 110.79 33.42C111.44 32.16 112.57 31.45 113.3 31.83C114.03 32.21 113.72 33.36 113.06 34.62V34.63Z" fill="#1E48A5"/>
<path d="M102.9 37.35C102.37 38.32 101.78 39.15 100.84 38.64C99.9 38.13 99.77 37.26 100.3 36.28C100.83 35.31 101.81 34.61 102.75 35.11C103.69 35.62 103.43 36.37 102.9 37.34V37.35Z" fill="#1E48A5"/>
<mask id="mask4_431_218" style="mask-type:luminance" maskUnits="userSpaceOnUse" x="55" y="14" width="124" height="88">
<path d="M93.8 47.2C86.42 47.2 74.41 45.21 63.36 51.39C50.9 58.37 52.49 82.1 74.28 92.72C132.66 121.18 157.58 71.58 157.58 71.58C157.58 71.58 193.63 49.7 171.04 29.21C145.23 5.79002 119.69 9.77002 115.08 42.1C114.31 47.52 93.8 47.2 93.8 47.2Z" fill="white"/>
</mask>
<g mask="url(#mask4_431_218)">
<path d="M132.19 38.17C129.85 38.17 128.29 36.92 127.77 36.24C127.61 36.11 126.82 35.99 126.3 35.91C125.21 35.74 123.84 35.53 122.68 34.76C120.56 33.35 119.39 26.37 119.08 24.27C118.99 23.66 119.41 23.09 120.03 23C120.64 22.91 121.21 23.33 121.3 23.95C121.93 28.2 123.16 32.39 123.93 32.9C124.68 33.4 125.68 33.55 126.64 33.7C127.81 33.88 128.92 34.05 129.56 34.9C129.56 34.91 130.53 36.02 132.4 35.93C134.54 35.83 138.04 34.15 142.54 26.76C145.8 21.4 149.68 21.13 151.33 21.01C151.52 21 151.75 20.98 151.83 20.96C153.26 20.62 154.23 20.07 154.48 19.45C154.73 18.83 154.3 17.97 153.9 17.37C153.56 16.85 153.7 16.16 154.22 15.82C154.74 15.48 155.43 15.62 155.77 16.14C156.78 17.67 157.04 19.07 156.56 20.29C156.01 21.67 154.59 22.63 152.34 23.16C152.09 23.22 151.83 23.24 151.49 23.26C149.96 23.37 147.12 23.57 144.46 27.94C140.44 34.55 136.42 37.99 132.52 38.18C132.41 38.18 132.3 38.18 132.2 38.18L132.19 38.17Z" fill="#FE92A9"/>
<path d="M55.89 75.1C55.69 75.1 55.5 75.05 55.32 74.94C54.79 74.62 54.61 73.94 54.93 73.41C55.01 73.28 56.91 70.11 61.01 70.33C64.67 70.53 70.47 69.44 71.9 66.39C73.96 62 76.82 61.07 80.13 59.99C80.81 59.77 81.51 59.54 82.25 59.27C84.97 58.28 86.64 56.86 87.23 55.04C87.92 52.92 87.16 50.19 84.97 46.92C84.62 46.41 84.76 45.71 85.28 45.36C85.79 45.01 86.49 45.15 86.84 45.67C89.43 49.54 90.28 52.92 89.37 55.73C88.55 58.23 86.42 60.13 83.02 61.37C82.24 61.65 81.52 61.89 80.82 62.12C77.55 63.19 75.58 63.83 73.93 67.34C71.93 71.58 65.04 72.79 60.89 72.56C58.2 72.41 56.92 74.45 56.87 74.54C56.66 74.89 56.29 75.08 55.91 75.08L55.89 75.1Z" fill="#FE92A9"/>
<path d="M96.17 101.09C95.75 101.09 95.35 100.86 95.16 100.45C92.94 95.83 94.48 90.26 95.4 86.94C95.53 86.47 95.65 86.05 95.74 85.68C96.42 82.98 96.12 80.13 95.16 74.36C94.68 71.49 92.79 69.98 91.17 69.51C89.68 69.08 88.24 69.46 87.3 70.52C86.45 71.49 85.52 72.6 84.62 73.68C83.07 75.54 81.74 77.14 80.99 77.75C79.8 78.73 78.12 78.71 76.17 78.69C74.77 78.67 73.18 78.66 71.53 79.01C69.13 79.52 67.43 85.35 66.98 88.1C66.88 88.71 66.3 89.12 65.69 89.03C65.08 88.93 64.66 88.35 64.76 87.74C64.93 86.73 66.51 77.8 71.05 76.82C72.94 76.42 74.74 76.44 76.18 76.45C77.69 76.47 78.99 76.48 79.54 76.02C80.13 75.54 81.52 73.86 82.88 72.24C83.79 71.15 84.73 70.03 85.6 69.04C87.12 67.32 89.42 66.69 91.77 67.36C94.67 68.19 96.81 70.73 97.35 73.99C98.37 80.09 98.67 83.13 97.89 86.22C97.79 86.61 97.67 87.05 97.54 87.54C96.65 90.76 95.31 95.62 97.16 99.48C97.43 100.04 97.19 100.71 96.64 100.98C96.48 101.06 96.32 101.09 96.15 101.09H96.17Z" fill="#FE92A9"/>
<path d="M112.91 103.05C112.67 103.05 112.43 102.97 112.22 102.82C112.05 102.69 108.12 99.57 110.12 90.38C111.23 85.29 113.17 82.38 114.58 80.24C115.56 78.77 116.26 77.71 116.26 76.59C116.26 76.31 116.26 75.98 116.26 75.62C116.21 71.23 116.1 62.1 121.44 61.37C126.89 60.62 130.27 65.85 131.46 68.13C133.54 72.09 133.93 81.09 133.83 83.74C133.83 84 133.8 84.32 133.78 84.68C133.66 86.9 133.29 93.66 135.58 94.4C136.17 94.59 136.49 95.22 136.3 95.81C136.11 96.4 135.48 96.72 134.89 96.53C130.96 95.26 131.34 88.29 131.55 84.55C131.57 84.2 131.59 83.89 131.6 83.64C131.71 80.77 131.25 72.52 129.48 69.15C128.72 67.7 125.91 63 121.75 63.57C118.37 64.03 118.47 72.42 118.5 75.57C118.5 75.94 118.5 76.28 118.5 76.57C118.5 78.36 117.55 79.8 116.44 81.46C115.05 83.55 113.32 86.16 112.3 90.83C110.63 98.49 113.55 101 113.58 101.02C114.07 101.4 114.16 102.09 113.78 102.59C113.56 102.88 113.23 103.03 112.89 103.03L112.91 103.05Z" fill="#FE92A9"/>
<path d="M144.87 90.43C144.36 90.43 143.91 90.09 143.78 89.57C142.76 85.38 142.62 75.06 144.39 70.74C145.96 66.92 150.32 61.57 157.85 58C165.2 54.52 174.15 56.16 174.52 56.23C175.13 56.35 175.53 56.93 175.41 57.54C175.29 58.15 174.71 58.55 174.1 58.43C174.02 58.41 165.48 56.86 158.8 60.02C151.84 63.32 147.8 68.31 146.46 71.58C144.98 75.2 144.91 84.78 145.95 89.02C146.1 89.62 145.73 90.23 145.13 90.38C145.04 90.4 144.95 90.41 144.86 90.41L144.87 90.43Z" fill="#FE92A9"/>
<path d="M179.55 47.9001C179.32 47.9001 179.09 47.8301 178.89 47.6801C178.86 47.6601 176.11 45.6401 174.77 44.8401C174.56 44.7101 174.19 44.6001 173.77 44.4801C172.08 43.9801 169.54 43.2301 167.26 38.9901C164.35 33.5701 166.98 25.7201 167.09 25.3801C167.29 24.7901 167.93 24.4801 168.51 24.6801C169.1 24.8801 169.41 25.5201 169.21 26.1001C169.19 26.1701 166.79 33.3701 169.23 37.9201C171.07 41.3401 172.91 41.8801 174.4 42.3201C174.95 42.4801 175.46 42.6301 175.92 42.9101C177.35 43.7701 180.1 45.7801 180.21 45.8601C180.71 46.2301 180.82 46.9301 180.45 47.4301C180.23 47.7301 179.89 47.8901 179.54 47.8901L179.55 47.9001Z" fill="#FE92A9"/>
<path d="M137.04 59.62C136.13 59.62 135.37 59.4901 134.72 59.2201C130.49 57.4601 131.76 52.1801 132.37 49.6501V49.6101C133.07 46.7301 135.78 43.33 139.8 40.28C144.23 36.93 154.11 36.34 154.53 36.32C154.75 36.31 154.97 36.3 155.18 36.3C158.53 36.3 160.29 38.0101 161.18 39.4501C163.01 42.4201 162.7 46.62 161.48 49.07C158.8 54.43 149.83 56.78 148.11 56.89C147.79 56.91 146.64 57.3 145.62 57.64C143.12 58.48 139.7 59.64 137.03 59.64L137.04 59.62ZM155.18 38.53C155.01 38.53 154.84 38.53 154.66 38.55C154.56 38.55 145.03 39.1301 141.15 42.0601C137.59 44.7501 135.12 47.77 134.55 50.12V50.16C133.85 53.04 133.3 56.19 135.57 57.14C135.93 57.29 136.42 57.37 137.03 57.37C139.33 57.37 142.55 56.2801 144.9 55.4901C146.51 54.9501 147.38 54.6601 147.97 54.6301C149.22 54.5601 157.26 52.46 159.46 48.05C160.41 46.16 160.6 42.78 159.26 40.62C158.4 39.24 157.03 38.53 155.17 38.53H155.18Z" fill="#FE92A9"/>
</g>
<path d="M200.1 292.62C186.14 292.62 171.79 288.95 157.24 281.63C156.59 281.31 156.33 280.52 156.66 279.87C156.98 279.22 157.77 278.96 158.42 279.29C204.36 302.39 237.2 283.07 252.69 269.5C264.99 258.72 270.76 245.51 269.84 230.22C269.11 218.15 264.29 208.99 263.74 207.99C258 197.46 259.28 187.2 259.98 181.7C260.15 180.35 260.31 179.07 260.24 178.59C257.55 161.16 244.02 143.48 227.34 135.61C217.09 130.77 207.41 130.5 200.08 134.85C183.08 144.93 162.67 163.6 162.46 163.78C162.12 164.09 161.64 164.2 161.2 164.07L156.21 162.57C156.14 162.55 156.08 162.52 156.01 162.49C155.87 162.42 141.51 155.41 127.97 145.2C109.5 131.28 101.25 118.33 103.45 106.73C104.11 103.28 104.26 101.43 104.25 100.46C102.82 102.15 100.35 106.46 98.48 110.31C98.2 110.89 97.54 111.18 96.92 110.99C96.3 110.8 95.92 110.19 96.01 109.55C96.03 109.39 98.27 93.4 97.49 88.12C97.49 88.07 97.48 88.03 97.47 87.98C96.38 89.95 94.75 94.5 93.62 98.52C93.44 99.15 92.83 99.55 92.18 99.46C91.53 99.37 91.05 98.81 91.06 98.16C91.1 92.45 90.56 86.97 89.83 85.14C88.72 86.81 86.97 92.02 85.83 96.58C85.67 97.22 85.06 97.64 84.41 97.56C83.76 97.48 83.26 96.93 83.26 96.27C83.21 91.59 82.73 87.05 82.14 85.15C79.54 88.8 72.42 101.55 72.86 118.77C73.36 138.7 83.63 157.46 103.37 174.53L104.25 175.29C133.67 200.85 159.85 211.82 182.05 207.88C182.76 207.76 183.44 208.23 183.57 208.94C183.69 209.65 183.22 210.33 182.51 210.46C167.71 213.08 151.12 209.38 133.22 199.44C118.9 191.49 107.43 181.53 102.53 177.27L101.66 176.52C85.81 162.81 75.83 147.84 72 132.01C68.51 117.62 70.86 105.25 73.45 97.41C75.08 92.46 76.98 88.7 78.29 86.42C80.86 81.94 81.59 81.88 82.03 81.85C82.56 81.81 83.09 82 83.52 82.39C84.52 83.31 85.1 85.87 85.43 88.65C86.58 85.39 87.91 82.75 89.28 82.25C89.89 82.03 90.54 82.12 91.06 82.49C91.95 83.13 92.92 84.63 93.41 90.81C95.41 85.48 96.59 84.46 97.91 84.55C99.63 84.66 99.97 86.91 100.09 87.76C100.58 91.04 100.03 97.77 99.47 102.96C102.59 97.65 104.05 96.85 105.38 97.29C107.17 97.88 107.33 100.39 106.03 107.24C101.29 132.17 154.5 158.84 157.07 160.11L161.24 161.36C164.64 158.29 183.08 141.89 198.74 132.61C206.84 127.81 217.39 128.04 228.45 133.26C236.6 137.11 244.46 143.49 250.58 151.23C257.14 159.53 261.37 168.86 262.82 178.21C262.95 179.05 262.8 180.24 262.58 182.04C261.93 187.25 260.71 196.96 266.04 206.76C266.98 208.48 271.7 217.71 272.45 230.09C273.41 246 267.17 260.32 254.41 271.5C246.62 278.32 233.72 287.23 216.46 290.92C211.08 292.07 205.62 292.64 200.1 292.64V292.62Z" fill="black"/>
<path d="M237.04 147.17C237.04 147.17 204.32 161.56 210.12 178.02C215.92 194.47 233.3 186.62 243.4 176.34C253.49 166.06 250.32 139.14 237.04 147.18V147.17Z" fill="#FFB518"/>
</g>
<defs>
<clipPath id="clip0_431_218">
<rect width="301.31" height="361.53" fill="white"/>
</clipPath>
</defs>
</svg>
